<svg xmlns="http://www.w3.org/2000/svg" width="32" height="32" viewBox="0 0 32 32">
  <defs>
    <filter id="glow" x="-80%" y="-80%" width="260%" height="260%">
      <feGaussianBlur stdDeviation="1.8" result="blur"/>
      <feMerge><feMergeNode in="blur"/><feMergeNode in="SourceGraphic"/></feMerge>
    </filter>
  </defs>
  <path d="M2.5 2.5 6.4 23l4.2-5.2 4 7.6 3.5-1.9-4-7.5 6.8-.2z" fill="#67d3dc" stroke="#082d37" stroke-width="1.5" stroke-linejoin="round"/>
  <path d="M19 6v12.2c-1.1-.8-3-.7-4.2.2-1.5 1.1-1.7 2.8-.5 3.7 1.2.9 3.3.7 4.7-.4.8-.6 1.2-1.4 1.2-2.2v-8.7l6-1.5v6.8c-1.1-.7-2.8-.6-4 .3-1.4 1-1.6 2.6-.4 3.5 1.1.8 3.1.6 4.4-.4.8-.6 1.1-1.3 1.1-2.1V4z" fill="#b9f15c" stroke="#0a4148" stroke-width=".8" stroke-linejoin="round" filter="url(#glow)"/>
</svg>
